<!-- Generated by IcoMoon.io -->
<svg version="1.1" xmlns="http://www.w3.org/2000/svg" width="768" height="768" viewBox="0 0 768 768">
<g id="icomoon-ignore">
</g>
<path fill="#000" d="M384 384q0-57 21.75-107.25t60-87.75 87.75-57q15-6 18.75-18.75t-3-25.5-21.75-15.75q-25.5-6-53.25-7.5t-57.75 3q-54 6-101.25 30.75t-84 63-60 86.25-29.25 102q-7.5 72 14.25 135.75t66.75 113.25 105.75 77.25 131.25 27.75q34.5 0 67.5-7.5 16.5-3 22.5-15t2.25-25.5-17.25-19.5q-52.5-21-90.75-59.25t-59.25-87.75-21-105v0z"></path>
</svg>
